/* XPM */
static char *result[] = {
/* columns rows colors chars-per-pixel */
"32 32 17 1 ",
"  c black",
". c #031930",
"X c #05223E",
"o c #804040",
"O c #C06060",
"+ c #E07070",
"@ c #A0A000",
"# c #C0C000",
"$ c #E0E000",
"% c yellow",
"& c #004286",
"* c #004E9A",
"= c #0051FF",
"- c #FF8080",
"; c #FCFC99",
": c #FFC0C0",
"> c white",
/* pixels */
"................................",
".XXXXXXXXXXXXXXXXXXXXXXXXXXXXXX.",
".XXX&&&&&&&        &&&&&&&&&XXX.",
".XX&&&&&   #%#;#;#%     &&&&&XX.",
".X&&&&  ;@%        #%#$#  &&&&X.",
".X&&  #%   ========     %# &&&X.",
".X& %;  *******          % &&&X.",
".X ;# =*&&&&&   &&&&&&&   % &&X.",
". #  =*&&&&&& &&    &&    # &&X.",
". ; ==*&&&&& && #%#%  #%#%# &&X.",
". # ==*&&      %    %@    % &&X.",
" ; &==*& ;#$#%# &&& $ &&& # &&X.",
" @ &==* @      &&& @ &&& % = &X.",
" % &== % &&&&&  && $ &&& # = &X.",
". # == #  &&&&&    @ &&& % = &X.",
".X % =* %# &&&&&&& % &&  # = &X.",
".X # =*&  % &&&&&& @   #% == &X.",
".X % =*&&& @ &&&&&& ;$%  X=  &X.",
".X& @ *&&& %  &&&&& ;#  &X= &&X.",
".X& % *&&& @   &&& ;%$;    =&&X.",
".X& # *&&& % & && %%%%$#   =&&X.",
".X& $ *&&& # & & %#O%$O%#   &&X.",
".X& # *&& $ &&& %$O+;#+O%#  &&X.",
".X& $ =X& # &&& $#+-#+-O%#   &X.",
".X& # ==XX % XX ++-:+--+Oo   &X.",
".X& % ===== # = +-:>::-+Oo   &X.",
".X& @ ====== % = +-::--+O   &&X.",
".X&& %  &&&& # & +-:---+o   &&X.",
".XX&& @%     % && O+++Oo   &&XX.",
".XXX&&  #%@%# &&&&  oo    &&XXX.",
".XXXXXXX     XXXXXXX   XXXXXXXX.",
"................................"
};
