/* XPM */
static char *_e2b2e36c1be4c16cb51abe3787cf9d5m6ozvQOqKLKSMJk2[] = {
/* columns rows colors chars-per-pixel */
"32 32 18 1 ",
"  c None",
". c black",
"X c #101010",
"o c #300C00",
"O c #202020",
"+ c gray19",
"@ c #401000",
"# c #601800",
"$ c #403000",
"% c #604800",
"& c gray25",
"* c #802000",
"= c #A02800",
"- c #806000",
"; c #A07800",
": c #C09000",
"> c #E0A800",
", c #FFC000",
/* pixels */
"O.O+O..OO.OO.O++OOOO.OO++OO.O.OO",
"O                              .",
"O                              .",
"+           ++&&&&++           O",
"O         ++oooX@ooo++         .",
"+        +oo@o@X#@@ooo+        +",
"O      ++ooo#o@X*#@o@oo++      O",
".     +oo@oo#@@X*#@o#oooo+     +",
"O    &ooo@@o#@#X*##o#@o@oo+    O",
".   +o@@o#@o*@#X=##@##@@#oo+   +",
".  +o@#@o#@@*@#X=#*@*#@##o@o+  +",
".  +o@##@*#@*#*X=#*@*#@*#o#o+  +",
"O  O@#*#@*#@*#*X=#*@*##**@#oO  +",
"+  O@#**@**#*#*X=#*#**#**#*@O  +",
"+  +;#**#**#*#*X=**#**#****;+  O",
"O  &->,,,,>>>::$,:>,,,>>>::-&  O",
"O  +%%%-----%%%$:%%------%%%+  O",
".  +$oo@oo@ooooX*@@oo@oo@o@$+  +",
".  Oooo#oo@#o@oX*##o@#o@@o#oO  +",
"O  Oo#o#o@##@#@X=*#@@#o@#o#@O  O",
".  O@*@#@@#*@##X=*#@#*@##@#@O  O",
"O  +@*#*@#**@#*X=*##**##*#*@+  .",
".  +;***##**#**X***********;+  O",
"O  &-:,,,>>>>::$,:>,,,>>>>:-&  O",
"O  +%%%-----%%%$:%%---%%%%%%+  O",
"+  &$@@ooooooooX*@ooo@@@ooo$&  +",
"O  +@***#******X=**********@+  O",
"+  +@##*@**##*#X=#*#*#*#*#*@+  +",
"O  +o##*@*#@#*@X=####@##*@#o+  O",
"O  &o#@#@#@o@#@X*@#@#o@@#o@o&  O",
"+  +@@o@oo@o@@oX*o@o@o@o@ooo+& +",
"O+OO........................OO+O"
};
