/* XPM */
static char *result[] = {
/* columns rows colors chars-per-pixel */
"32 32 28 1 ",
"  c black",
". c #031930",
"X c #05223E",
"o c gray19",
"O c #401000",
"+ c #601800",
"@ c #402000",
"# c #603000",
"$ c #604800",
"% c #7F5A48",
"& c #800000",
"* c #A00000",
"= c #802000",
"- c #804000",
"; c #A05000",
": c #806000",
"> c #A07800",
", c #A5765E",
"< c #C09000",
"1 c #E0A800",
"2 c #CA8F72",
"3 c #004286",
"4 c #004E9A",
"5 c #0051FF",
"6 c #E5A282",
"7 c #FFB691",
"8 c #FFD3AF",
"9 c #D0D0D0",
/* pixels */
"..............7876..............",
".XXXXXX;#XXXX677866XXXXXXXXXXXX.",
".XXX33;-#@333667776333333333XXX.",
".XX333;;-#3326%%7%%6333333333XX.",
".X333;--#@55,66272265555533333X.",
".X333;;--#55,26****26255553333X.",
".X333;-;-#2%,2&&&&&&6,62,55333X.",
".X335;--##6,%,&9&&9&2,2,62,533X.",
".X332;;-#6222%222222%,,2,62,33X.",
".X3262;--2,%22%%%%%%22%,2,,2,3X.",
".X26,2;-#%3,26622226623%%2222,X.",
".X622%--#3%,6222,2622,333%%,22X.",
".262%;-##3,%2222,2222%,33X,26,X.",
".,22,;--33,2,,,,22,,,2,33X,26,X.",
".%262;-#3%,2666662222,, 3X,62,X.",
".X%622-#3%,2666666622,,  X262%X.",
".X3,62663O,22666662222,  ,,,2%X.",
".X33%2223O+,,2222222,,O ,622, X.",
".X335%,,3>++%,,,o,,,%OO %222% X.",
".X335-#33><++==%%%%++O>  %%%  X.",
".X335#43$>:<+======++<$>      X.",
".X335543><<:1>1====><<>>      X.",
".X33554$>:%<>1>1>1>1<:<$      X.",
".X3355>>><%<1%11111%<<%>     3X.",
".X33555>%<>1>%>1%>1%:<,      3X.",
".X333555%2,>,%%> 1%,2<62    33X.",
".X333355%661,%   1%,226,    33X.",
".X33333%,22,%   33%,2,,    333X.",
".XX3333%,,,,%  3333%,22    33XX.",
".XXX333,222,  33333%,,662 33XXX.",
".XXXXXX,,,%% XXXXX %%,,,, XXXXX.",
"......       .....       ......."
};
