/* XPM */
static char *f5d5f61ea6e54f8ae09f38a7a6187724RrwEz24Zuw5jn9AT[] = {
/* columns rows colors chars-per-pixel */
"32 32 5 1 ",
"  c #0A1F33",
". c #0D2740",
"X c #004485",
"o c #004F99",
"O c #0052FF",
/* pixels */
"                                ",
" .............................. ",
" ...XXXXXXXXXXXXXXXXXXXXXXXX... ",
" ..XXXXXXXXXXXXXXXXXXXXXXXXXX.. ",
" .XXXXXOOOOOOOOOOOOOOOOOOXXXXX. ",
" .XXXXOOOOOOOOOOOOOOOOOOOOXXXX. ",
" .XXXOOOooooooooooooooooOOOXXX. ",
" .XXOOOoXXXXXXXXXXXXXXXX.OOOXX. ",
" .XXOOoXXXXXXXXXXXXXXXXXX.OOXX. ",
" .XXOOoXXXXXXXXXXXXXXXXXX.OOXX. ",
" .XXOOoXXXXXXXXXXXXXXXXXX.OOXX. ",
" .XXOOoXXXXXXXXXXXXXXXXXX.OOXX. ",
" .XXOOoXXXXXXXXXXXXXXXXXX.OOXX. ",
" .XXOOoXXXXXXXXXXXXXXXXXX.OOXX. ",
" .XXOOoXXXXXXXXXXXXXXXXXX.OOXX. ",
" .XXOOoXXXXXXXXXXXXXXXXXX.OOXX. ",
" .XXOOoXXXXXXXXXXXXXXXXXX.OOXX. ",
" .XXOOoXXXXXXXXXXXXXXXXXX.OOXX. ",
" .XXOOoXXXXXXXXXXXXXXXXXX.OOXX. ",
" .XXOOoXXXXXXXXXXXXXXXXXX.OOXX. ",
" .XXOOoXXXXXXXXXXXXXXXXXX.OOXX. ",
" .XXOOoXXXXXXXXXXXXXXXXXX.OOXX. ",
" .XXOOoXXXXXXXXXXXXXXXXXX.OOXX. ",
" .XXOOO.XXXXXXXXXXXXXXXX.OOOXX. ",
" .XXOOOO................OOOOXX. ",
" .XXXOOOOOOOOOOOOOOOOOOOOOOXXX. ",
" .XXXXOOOOOOOOOOOOOOOOOOOOXXXX. ",
" .XXXXXXXXXXXXXXXXXXXXXXXXXXXX. ",
" ..XXXXXXXXXXXXXXXXXXXXXXXXXX.. ",
" ...XXXXXXXXXXXXXXXXXXXXXXXX... ",
" .............................. ",
"                                "
};
