/* XPM */
static char *_78ee9d9a6df4f9ea291af80d3665629wrmyDkN8xnLd2iOC[] = {
/* columns rows colors chars-per-pixel */
"32 32 26 1 ",
"  c black",
". c #031930",
"X c #05223E",
"o c gray19",
"O c #000060",
"+ c #7F5A48",
"@ c gray44",
"# c #A5765E",
"$ c #CA8F72",
"% c navy",
"& c #0000A0",
"* c #004286",
"= c #004E9A",
"- c #0000C0",
"; c #0000E0",
": c blue",
"> c #0051FF",
", c #808080",
"< c #909090",
"1 c gray69",
"2 c #E5A282",
"3 c #FFB691",
"4 c #FFD3AF",
"5 c #D0D0D0",
"6 c gray88",
"7 c gray94",
/* pixels */
".............    ...............",
".XXXXXXXXXXX 7765 XXXXXXXXXXXXX.",
".XXX******* 76551< *********XXX.",
".XX******** 655111 **********XX.",
".X*****>>>> 5#5#<1 >>>>>>*****X.",
".X****>>>>> <$<23< >>>>>>>****X.",
".X***>>>=   <2<3#<    ==>>>***X.",
".X**>>>= 551  3#+o 551 *X>>>**X.",
".X**>>= 551<#3442$@51<< *X>>**X.",
".X**>>= 51<@@$32$1@5<<@ *X>>**X.",
".X**>>=* <@1577751@1<@@ *X>>**X.",
".X**>>=** ,5777551@4++ **X >**X.",
".X**>>=* 4,<17551,@34# ** ;  *X.",
".X**>>=* 42,<111<@+242 **X ;O X.",
".X**>>= 432+@@@@@$ 242+ *X> &O .",
".X**>>= 42# $+$$2$ +32# *X> ;% .",
".X**>  42#+ 4#43$+  #22 *X> &O .",
".X** 442++  $+$$$+  +#2 *X> ;% .",
".X** 432  * 4$43$O  +32 *  ;& X.",
".X** 32 *** -22-:O  33+  &;&O X.",
".X**>  **** :&-;;O  42  -;&O *X.",
".X**>>=*** &;:&:-O  32  &&% **X.",
".X**>>=*** :&-;&-O *    ;-O **X.",
".X**>>>X* ;&;&:-&O *** -&&%  *X.",
".X**>>>>X &%O%-&; XXXX &-;O    .",
".X***>>>> %O%O%;:O >>> &;&O     ",
".X****>>> O%O%O;&-&   &-&%O     ",
".X******* %O%O%&;&;;&-&--%      ",
".XX******* %O%O%&&-&-&;&OO      ",
".XXX****** O%O%O%O%O%&%%        ",
".XXXXXXXXXX  %O%O%O%O%         .",
".............                ..."
};
