/* XPM */
static char *result[] = {
/* columns rows colors chars-per-pixel */
"32 32 26 1 ",
"  c black",
". c #031930",
"X c #05223E",
"o c gray19",
"O c #000060",
"+ c #7F5A48",
"@ c gray44",
"# c #A5765E",
"$ c #CA8F72",
"% c navy",
"& c #0000A0",
"* c #004286",
"= c #004E9A",
"- c #0000C0",
"; c #0000E0",
": c blue",
"> c #0051FF",
", c #808080",
"< c #909090",
"1 c gray69",
"2 c #E5A282",
"3 c #FFB691",
"4 c #FFD3AF",
"5 c #D0D0D0",
"6 c gray88",
"7 c gray94",
/* pixels */
"...............    .............",
".XXXXXXXXXXXXX 5677 XXXXXXXXXXX.",
".XXX********* <15567 *******XXX.",
".XX********** 111556 ********XX.",
".X*****>>>>>> 1<#5#5 >>>>*****X.",
".X****>>>>>>> <32<$< >>>>>****X.",
".X***>>>==    <#3<2<   =>>>***X.",
".X**>>>X* 155 o+#3  155 =>>>**X.",
".X**>>X* <<15@$2443#<155 =>>**X.",
".X**>>X* @<<5@1$23$@@<15 =>>**X.",
".X**>>X* @@<1@1577751@< *=>>**X.",
".X**> X** ++4@1557775, **=>>**X.",
".X*  ; ** #43@,15571<,4 *=>>**X.",
".X O; X** 242+@<111<,24 *=>>**X.",
". O& >X* +242 $@@@@@+234 =>>**X.",
". %; >X* #23+ $2$$+$ #24 =>>**X.",
". O& >X* 22#  +$34#4 +#24  >**X.",
". %; >X* 2#+  +$$$+$  ++244 **X.",
".X &;  * 23+  O$34$4 *  234 **X.",
".X O&;&  +33  O:-22- *** 23 **X.",
".X* O&;-  24  O;;-&: ****  >**X.",
".X** %&&  23  O-:&:;& ***=>>**X.",
".X** O-;    * O-&;-&: ***=>>**X.",
".X*  %&&- *** O&-:&;&; *X>>>**X.",
".    O;-& XXXX ;&-%O%& X>>>>**X.",
"     O&;& >>> O:;%O%O% >>>>***X.",
"     O%&-&   &-&;O%O%O >>>****X.",
"      %--&-&;;&;&%O%O% *******X.",
"      OO&;&-&-&&%O%O% *******XX.",
"        %%&%O%O%O%O%O ******XXX.",
".         %O%O%O%O%  XXXXXXXXXX.",
"...                ............."
};
