/* XPM */
static char *result[] = {
/* columns rows colors chars-per-pixel */
"32 32 107 2 ",
"   c black",
".  c #010101",
"X  c #020202",
"o  c gray1",
"O  c #040404",
"+  c gray2",
"@  c #060606",
"#  c #070707",
"$  c gray3",
"%  c #090909",
"&  c gray4",
"*  c #0B0B0B",
"=  c #0C0C0C",
"-  c gray5",
";  c #0E0E0E",
":  c gray6",
">  c #101010",
",  c #111111",
"<  c gray7",
"1  c #131313",
"2  c gray8",
"3  c #151515",
"4  c #161616",
"5  c gray9",
"6  c #181818",
"7  c #191919",
"8  c gray10",
"9  c #1B1B1B",
"0  c gray11",
"q  c #1D1D1D",
"w  c #1E1E1E",
"e  c gray12",
"r  c #202020",
"t  c gray13",
"y  c #222222",
"u  c #232323",
"i  c gray14",
"p  c #252525",
"a  c gray15",
"s  c #272727",
"d  c #282828",
"f  c gray16",
"g  c #2A2A2A",
"h  c gray17",
"j  c #2C2C2C",
"k  c #2D2D2D",
"l  c gray18",
"z  c #2F2F2F",
"x  c gray19",
"c  c #313131",
"v  c #323232",
"b  c gray20",
"n  c #343434",
"m  c #353535",
"M  c gray21",
"N  c #373737",
"B  c gray22",
"V  c #393939",
"C  c #3A3A3A",
"Z  c gray23",
"A  c #3C3C3C",
"S  c gray24",
"D  c #3E3E3E",
"F  c #3F3F3F",
"G  c gray25",
"H  c #414141",
"J  c gray26",
"K  c #434343",
"L  c #464646",
"P  c gray28",
"I  c #494949",
"U  c #4B4B4B",
"Y  c #4C4C4C",
"T  c gray30",
"R  c #4E4E4E",
"E  c gray31",
"W  c #505050",
"Q  c #515151",
"!  c gray32",
"~  c #535353",
"^  c gray33",
"/  c #565656",
"(  c gray34",
")  c #585858",
"_  c #606060",
"`  c gray38",
"'  c #626262",
"]  c gray39",
"[  c #656565",
"{  c #676767",
"}  c #686868",
"|  c DimGray",
" . c #6A6A6A",
".. c gray42",
"X. c gray43",
"o. c #747474",
"O. c gray46",
"+. c #767676",
"@. c #777777",
"#. c gray47",
"$. c #797979",
"%. c gray48",
"&. c #7B7B7B",
"*. c #7E7E7E",
"=. c gray50",
"-. c #BFBF00",
";. c #FFFF8F",
/* pixels */
"t a a a t t t a t t t t t t a t t a t t a t a a t a a t a t a t ",
"r M G ] o.' L o.' f O._ O._ +.l U { U x T v R } $.} E #.} R ~ x ",
"p { o.P ] L ] L P ` P +.g L [ U c U v E ..W | %.| Q  .! Q %.x 5 ",
"e Y z I 8 % 8 z z 5 # 6 5 I 9 = e - e > X r o 1 X u 2 2 + 1 = < ",
"e } U w - o = 0 X o 7 o X 0 ; + t : , + 2 + # $ # 5 & & s 4 1 - ",
"i #.c ; w o q b o b : q v w O , O + 1 i O 7 X 5 % 6 o * h f - < ",
"i { Y w w O q - O + : O ; ; r N , O 1 V + X $ 6 X O = o & & 7 - ",
"e { @.n : - m ; + + : O n : , y , 1 C 3 5 % 6 $ = = o * X g 1 < ",
"e #.#.e , e m ; + : + ; r r + < C u + + D h * 8 9 9 h 0 J 9 1 < ",
"i R v ; , O t O : O , + t O < + 4   a . . . . * & g 9 & 9 & 1 - ",
"p &.E M y 1 + , y y < O < + i Z @ . A 7 & h 0 j 0 j - - ; 0 1 - ",
"e Q  .e < u + + < < u < -.;.;.3 + . d % G - k X e - e X e ; 1 < ",
"e ..m t < O 3 + + < @ @ < -.-.;.6 a 8 & * . = X o ; : r o o ; 8 ",
"i &.n , i < O 2 2 @ 2 + + 3 C -.;.;.g 0 o w z - r : X r > , 1 - ",
"i &...i 3 V V i @ 4 p C p p a 7 -.-.;.X O o l l ; O , O > X ; - ",
"i X.B 2 a V 2 + + + p i V p $ -.-.;.* l e o - w ; o , > o > 9 - ",
"i ~ V @ 4 $ $ a Z + + 4 p 5 -.;.;.h * - - o ; e ; , x w z : 1 - ",
"i *.B s 5 5 % . 5 s 5 # 5 -.;.* 7 & * - z : o e e , , w z e - < ",
"e *.~ @ % % % X $ 5 d d 6 o -.;.& H j q X e o r , O O o > > 1 - ",
"e B ^ $ $ X % 7 & * & 9 * o * -.;.;.o ; K ; ; o o r , O > x - < ",
"p ( =.d g * o * & = o o = k q k -.-.;.o : z > r z t O t > e < < ",
"e *.S # H 0 = j F X - ; - o e - J ; -.;., < v : x , O m , u 0 < ",
"e S D 8 & * X * 0 j - o - 0 - X = = ; -.;.;., r > , O < m < 1 9 ",
"p ) 6 & 0 g & * . * q - q r ; - l J o o -.-.;.y y u < o < o 1 - ",
"e =.D & * g H h 9 h * * * . ; X k k ; r , o -.;.i y n , m o - < ",
"i ( A f 9 & % 8 9 9 h 0 j k w   w . X z t t y O o < n y < u 0 < ",
"e =.A $ 9 G 0 0 g * q X X k J k K e o o , t , O O u , u u o 0 9 ",
"e / ( $ G $ % 0 = o O O - X - . ; w o , < o < u X < m o @ 1 2 = ",
"r A A 5 g & h o * * O = O o ; ; o ; > r O < m m < M 1 6 @ 4 - 9 ",
"p ) S F 8 X * * O = w = o j q o : : o o t t 1 o 1 2 O @ 6 s q - ",
"a D             o       o       O O         +   +   +   #   ; < ",
"s 6                                                         1 - "
};
